# xmcd
#
# Track frame offsets: 
#        150
#        15040
#        35940
#        61775
#        81812
#        100957
#        128577
#        148587
#        172035
#        186507
#
# Disc length: 2877 seconds
#
# Revision: 2
# Processed by: cddbd v1.5.2PL0 Copyright (c) Steve Scherf et al.
# Submitted via: ExactAudioCopy v1.0b3
#
DISCID=810b3b0a
DTITLE=Oasis - Standing On The Shoulder Of Giants
DYEAR=2000
DGENRE=Rock
TTITLE0=Fuckin' In The Bushes
TTITLE1=Go Let It Out
TTITLE2=Who Feels Love?
TTITLE3=Put Yer Money Where Yer Mouth Is
TTITLE4=Little James
TTITLE5=Gas Panic!
TTITLE6=Where Did It All Go Wrong?
TTITLE7=Sunday Morning Call
TTITLE8=I Can See A Liar
TTITLE9=Roll It Over
EXTD=
EXTT0=
EXTT1=
EXTT2=
EXTT3=
EXTT4=
EXTT5=
EXTT6=
EXTT7=
EXTT8=
EXTT9=
PLAYORDER=
